<svg width="570" height="129" viewBox="0 0 570 129" fill="none" xmlns="http://www.w3.org/2000/svg">
<g clip-path="url(#clip0_209_17)">
<path d="M51.5918 128.494C45.9082 128.494 41.1621 128.055 37.3535 127.176C32.0801 126.062 28.2129 124.334 25.752 121.99C20.2441 110.33 15.5273 97.5566 11.6016 83.6699C6.15234 64.4512 2.34375 44.6172 0.175781 24.168C2.8125 20.3008 6.41602 17.3125 10.9863 15.2031C15.5566 13.0352 20.6543 11.9512 26.2793 11.9512C34.7168 11.9512 41.3379 13.5625 46.1426 16.7852C51.0059 20.0078 53.4375 24.6074 53.4375 30.584C53.0273 35.0371 52.6465 41.5703 52.2949 50.1836C52.002 58.7969 51.8555 66.5898 51.8555 73.5625C51.8555 75.4961 52.0312 77.0195 52.3828 78.1328C52.793 79.1875 53.6133 79.7148 54.8438 79.7148C55.3125 79.7148 55.8984 79.627 56.6016 79.4512C56.543 78.9238 56.5137 78.0449 56.5137 76.8145V73.7383C56.5137 65.2422 56.8066 55.457 57.3926 44.3828C57.9785 33.25 58.6816 24.959 59.502 19.5098C64.834 16.2285 71.1035 14.5879 78.3105 14.5879C85.5176 14.5879 91.3184 15.584 95.7129 17.5762C100.986 20.0371 103.77 23.6406 104.062 28.3867C103.77 34.1289 103.213 39.7832 102.393 45.3496C101.631 50.916 100.693 57.332 99.5801 64.5977C98.4668 71.8633 97.7637 76.668 97.4707 79.0117C97.9395 79.2461 98.5547 79.3633 99.3164 79.3633C100.078 79.3633 100.781 79.0703 101.426 78.4844C102.07 77.8984 102.598 76.4922 103.008 74.2656C104.824 64.8906 106.318 55.0176 107.49 44.6465C108.662 34.2168 109.424 25.1348 109.775 17.4004C115.166 13.7676 122.607 11.9512 132.1 11.9512C139.775 11.9512 145.898 14.002 150.469 18.1035C155.039 22.1465 157.324 27.5957 157.324 34.4512C157.324 39.0215 155.156 51.0039 150.82 70.3984C148.594 80.5938 146.455 89.3242 144.404 96.5898C142.354 103.797 140.684 108.865 139.395 111.795C136.699 117.713 132.656 121.99 127.266 124.627C121.934 127.205 115.107 128.494 106.787 128.494C103.447 128.494 99.5801 127.996 95.1855 127C90.8496 126.004 87.5391 124.891 85.2539 123.66C84.082 121.844 82.7637 119.09 81.2988 115.398C79.834 111.707 78.9258 108.924 78.5742 107.049C76.2891 107.107 75.1465 108.338 75.1465 110.74C75.1465 112.615 76.0547 116.072 77.8711 121.111C71.7188 126.033 62.959 128.494 51.5918 128.494ZM248.024 83.4941C248.024 87.7129 248.493 91.1113 249.43 93.6895C250.368 96.2676 252.008 98.2891 254.352 99.7539C254.411 100.047 254.44 100.604 254.44 101.424V103.006C254.44 111.326 251.92 117.801 246.881 122.43C242.428 126.531 236.92 128.582 230.358 128.582C225.905 128.582 221.832 127.527 218.141 125.418C214.45 123.309 211.813 120.262 210.231 116.277C208.239 116.277 207.243 117.244 207.243 119.178C207.243 120.818 208.268 122.664 210.319 124.715C206.51 127.293 200.768 128.582 193.092 128.582C182.252 128.582 173.58 125.652 167.077 119.793C160.631 113.875 157.409 105.643 157.409 95.0957C157.409 84.4902 160.836 76.2871 167.692 70.4863C173.961 65.2715 182.077 62.6641 192.038 62.6641C195.436 62.6641 198.717 62.8984 201.881 63.3672C203.991 63.7773 205.133 64.0117 205.309 64.0703C205.485 63.4844 205.573 62.9863 205.573 62.5762C205.573 61.0527 204.284 60.0273 201.705 59.5C199.127 58.9727 195.758 58.709 191.598 58.709C182.75 58.709 175.192 60.4961 168.922 64.0703C166.051 59.207 164.616 53.0547 164.616 45.6133C164.616 41.3945 165.143 38.2598 166.198 36.209C170.416 34.2754 175.778 32.5762 182.282 31.1113C188.786 29.5879 195.641 28.8262 202.848 28.8262C217.731 28.8262 228.981 32.0781 236.598 38.582C244.215 45.0859 248.024 54.3145 248.024 66.2676V83.4941ZM202.409 87.8008C199.948 87.8008 198.717 88.9141 198.717 91.1406C198.717 93.25 200.153 94.3047 203.024 94.3047C205.016 94.3047 206.481 93.8359 207.418 92.8984C208.356 91.9023 208.825 90.2031 208.825 87.8008C208.825 87.8008 206.686 87.8008 202.409 87.8008ZM305.325 93.9531L301.106 95.7988C301.106 99.7246 301.868 103.914 303.391 108.367C304.68 112.586 306.468 116.336 308.753 119.617C302.952 125.594 294.895 128.582 284.583 128.582C278.665 128.582 273.538 127.029 269.202 123.924C264.163 120.408 261.643 115.75 261.643 109.949V7.38086C264.456 5.74023 267.825 4.39258 271.751 3.33789C275.735 2.2832 279.749 1.75586 283.792 1.75586C290.53 1.75586 296.096 3.07422 300.491 5.71094C305.471 8.81641 307.962 13.2695 307.962 19.0703V28.3867C307.962 36.1797 306.585 43.7969 303.831 51.2383C303.304 52 302.366 53.1133 301.018 54.5781C299.671 55.9844 298.587 57.2734 297.766 58.4453C297.005 59.6172 296.624 60.6426 296.624 61.5215C296.624 62.3418 297.327 63.1035 298.733 63.8066C303.304 59.5293 306.878 54.8711 309.456 49.832C312.093 44.793 314.495 38.1133 316.663 29.793C317.425 29.6758 318.304 29.5293 319.3 29.3535C320.296 29.1777 321.936 28.9141 324.221 28.5625C326.565 28.1523 328.206 27.9473 329.143 27.9473C338.167 27.9473 345.198 30.0273 350.237 34.1875C355.276 38.2891 357.796 43.9434 357.796 51.1504C357.796 58.3574 355.511 64.5391 350.94 69.6953C346.721 74.3242 341.243 77.8105 334.505 80.1543C339.895 83.3184 346.692 85.5742 354.895 86.9219C358.059 92.6641 359.641 98.7871 359.641 105.291C359.641 111.736 357.591 117.127 353.489 121.463C348.919 126.209 342.591 128.582 334.505 128.582C326.477 128.582 319.856 125.506 314.641 119.354C309.485 113.143 306.38 104.676 305.325 93.9531ZM410.878 93.9531L406.659 95.7988C406.659 99.7246 407.421 103.914 408.945 108.367C410.234 112.586 412.021 116.336 414.306 119.617C408.505 125.594 400.448 128.582 390.136 128.582C384.218 128.582 379.091 127.029 374.755 123.924C369.716 120.408 367.196 115.75 367.196 109.949V7.38086C370.009 5.74023 373.378 4.39258 377.304 3.33789C381.288 2.2832 385.302 1.75586 389.345 1.75586C396.083 1.75586 401.65 3.07422 406.044 5.71094C411.025 8.81641 413.515 13.2695 413.515 19.0703V28.3867C413.515 36.1797 412.138 43.7969 409.384 51.2383C408.857 52 407.919 53.1133 406.571 54.5781C405.224 55.9844 404.14 57.2734 403.32 58.4453C402.558 59.6172 402.177 60.6426 402.177 61.5215C402.177 62.3418 402.88 63.1035 404.286 63.8066C408.857 59.5293 412.431 54.8711 415.009 49.832C417.646 44.793 420.048 38.1133 422.216 29.793C422.978 29.6758 423.857 29.5293 424.853 29.3535C425.849 29.1777 427.489 28.9141 429.775 28.5625C432.118 28.1523 433.759 27.9473 434.696 27.9473C443.72 27.9473 450.751 30.0273 455.79 34.1875C460.829 38.2891 463.349 43.9434 463.349 51.1504C463.349 58.3574 461.064 64.5391 456.493 69.6953C452.275 74.3242 446.796 77.8105 440.058 80.1543C445.448 83.3184 452.245 85.5742 460.448 86.9219C463.612 92.6641 465.195 98.7871 465.195 105.291C465.195 111.736 463.144 117.127 459.042 121.463C454.472 126.209 448.144 128.582 440.058 128.582C432.03 128.582 425.409 125.506 420.195 119.354C415.038 113.143 411.933 104.676 410.878 93.9531ZM561.519 83.4941C561.519 87.7129 561.988 91.1113 562.925 93.6895C563.863 96.2676 565.504 98.2891 567.847 99.7539C567.906 100.047 567.935 100.604 567.935 101.424V103.006C567.935 111.326 565.416 117.801 560.377 122.43C555.923 126.531 550.416 128.582 543.853 128.582C539.4 128.582 535.328 127.527 531.636 125.418C527.945 123.309 525.308 120.262 523.726 116.277C521.734 116.277 520.738 117.244 520.738 119.178C520.738 120.818 521.763 122.664 523.814 124.715C520.005 127.293 514.263 128.582 506.587 128.582C495.748 128.582 487.076 125.652 480.572 119.793C474.127 113.875 470.904 105.643 470.904 95.0957C470.904 84.4902 474.332 76.2871 481.187 70.4863C487.457 65.2715 495.572 62.6641 505.533 62.6641C508.931 62.6641 512.212 62.8984 515.377 63.3672C517.486 63.7773 518.629 64.0117 518.804 64.0703C518.98 63.4844 519.068 62.9863 519.068 62.5762C519.068 61.0527 517.779 60.0273 515.201 59.5C512.623 58.9727 509.254 58.709 505.093 58.709C496.246 58.709 488.687 60.4961 482.418 64.0703C479.546 59.207 478.111 53.0547 478.111 45.6133C478.111 41.3945 478.638 38.2598 479.693 36.209C483.912 34.2754 489.273 32.5762 495.777 31.1113C502.281 29.5879 509.136 28.8262 516.343 28.8262C531.226 28.8262 542.476 32.0781 550.093 38.582C557.711 45.0859 561.519 54.3145 561.519 66.2676V83.4941ZM515.904 87.8008C513.443 87.8008 512.212 88.9141 512.212 91.1406C512.212 93.25 513.648 94.3047 516.519 94.3047C518.511 94.3047 519.976 93.8359 520.914 92.8984C521.851 91.9023 522.32 90.2031 522.32 87.8008C522.32 87.8008 520.181 87.8008 515.904 87.8008Z" fill="white"/>
</g>
<defs>
<clipPath id="clip0_209_17">
<rect width="570" height="129" fill="white"/>
</clipPath>
</defs>
</svg>
